<svg id="图层_1" data-name="图层 1" xmlns="http://www.w3.org/2000/svg" viewBox="0 0 51.6 50.78"><defs><style>.cls-1{fill:#a77719;}</style></defs><path class="cls-1" d="M37.84,16.46c-.11-.13-.39-.4-.37-.31l.44.49Z"/><path class="cls-1" d="M36.76,15.81a7.87,7.87,0,0,0,1,1.11c-.41-.49-.22-.31-.71-.88,0-.09.2.09.37.27-.11-.13.15.05-.13-.26s-.47-.28-.22.07A2.27,2.27,0,0,1,36.76,15.81Z"/><path class="cls-1" d="M33,18.15l.08,0Z"/><path class="cls-1" d="M30.8,19.79a.4.4,0,0,0-.08-.12A.25.25,0,0,0,30.8,19.79Z"/><path class="cls-1" d="M30,19.6l.05,0C30,19.58,29.93,19.56,30,19.6Z"/><path class="cls-1" d="M33,18.15l-.2-.1C32.91,18.21,32.9,18.14,33,18.15Z"/><path class="cls-1" d="M37.47,17.36a1.26,1.26,0,0,0-.1-.15.25.25,0,0,1,0,.07Z"/><path class="cls-1" d="M33.42,16.93v0l-.17-.2Z"/><path class="cls-1" d="M34,16.21a7.34,7.34,0,0,0,.53.58,1.52,1.52,0,0,1-.24-.3Z"/><path class="cls-1" d="M35.71,15.89l0-.07S35.69,15.87,35.71,15.89Z"/><path class="cls-1" d="M32.87,17.3l-.15-.13Z"/><path class="cls-1" d="M17.86,38.3l-.07-.07Z"/><path class="cls-1" d="M15.14,37.07v0l-.22-.22Z"/><path class="cls-1" d="M28.86,19.69h0C28.84,19.63,28.84,19.65,28.86,19.69Z"/><path class="cls-1" d="M23.69,25.44c.42.29.36.56.85.86C24.37,26.15,24,25.59,23.69,25.44Z"/><path class="cls-1" d="M37.4,17.32s0,0,0,0S37.41,17.35,37.4,17.32Z"/><path class="cls-1" d="M24.54,26.3h0l.05,0Z"/><path class="cls-1" d="M27.73,21.3l.18.16A1.74,1.74,0,0,0,27.73,21.3Z"/><path class="cls-1" d="M29.31,20.84l-.08,0C29.28,20.84,29.3,20.85,29.31,20.84Z"/><path class="cls-1" d="M27.76,22.39c-.05,0-.11-.07-.07,0s0,0,0,.05S27.68,22.34,27.76,22.39Z"/><path class="cls-1" d="M27.21,22.94l.09.07a.08.08,0,0,0,0,0Z"/><path class="cls-1" d="M19.34,36.43,19,36.1C19.25,36.37,19.27,36.55,19.34,36.43Z"/><path class="cls-1" d="M37.24,17.14a1.3,1.3,0,0,1,.16.18.08.08,0,0,0,0,0A.92.92,0,0,0,37.24,17.14Z"/><path class="cls-1" d="M30.87,25.55l-.15,0A.17.17,0,0,0,30.87,25.55Z"/><path class="cls-1" d="M23.24,32.42l0,.06S23.28,32.47,23.24,32.42Z"/><path class="cls-1" d="M30.52,25.89a1.66,1.66,0,0,0-.32-.22l.09.11Z"/><path class="cls-1" d="M19,36.09h0Z"/><path class="cls-1" d="M19.32,37.62c.1-.08-.47-.56-.75-.87-.05-.25.43.34.73.57-.07-.2-.51-.73-.44-.75a1.53,1.53,0,0,1,.23.22c-.35-.48.17-.22-.27-.82l.14.12c-.28-.25-.55-.51-.73-.7,0,0-.26-.4.09-.07,0,0,.11.15.2.27l-.11-.19c.53.45.12.22.48.59-.08-.24-.4-.74-.2-.66.49.47,0,.3.53.65L19,35.89c.82.69-.11,0,.76.75.26,0-.11-.38.15-.36-.24-.29-.4-.39-.64-.68-.32-.65,1.34,1.08.82.31-.29-.35-.88-1-.47-.74l.51.58c.17-.07-.71-.85-.23-.61.19.24.09.27.17.32.51.35-.25-.36-.19-.42l.49.47c.05-.2-.16-.69-.11-.91a2.29,2.29,0,0,0,.44.44c-.07-.41.43-.31.88-.19l-.36-.48a.88.88,0,0,1,.28.26c.23.09-.26-.27-.39-.46s.29.19.39.34c-.24-.47-.43-1.09.13-.76l.1.15c.26.07-.74-1-.27-.66l.06.09c.38,0,.22-.63,1-.16-.57-.62.46.07-.36-.78a4.49,4.49,0,0,0,1.09.6c.08,0-.46-.59-.49-.73l.44.43-.39-.53.56.49-.06-.17a1.24,1.24,0,0,1-.36-.28c-.12-.27.5.11.72.34L23.45,32a2,2,0,0,1,.29.41c-.35-.55.47.44.16-.06a3.75,3.75,0,0,1-.34-.36c.31.22.41.12.38-.07l.28.32c.22-.07.15-.44.31-.59a2.33,2.33,0,0,1-.7-.71l.47.44c-.25-.31-.22-.13-.51-.54.12,0,.57.49.68.67l-.09-.23c.15.14.2.22.37.4-.25-.31.59.34.13-.19l.14.13c.16-.15.07-.38.18-.53-.4-.4-.26-.36-.54-.72.22,0,.63.24.71.1-.12-.28-.31-.36-.51-.64.36.36.44.21.64.53.08-.19.1-.24,0-.71a1.9,1.9,0,0,1-.36-.3c0-.09.22.08.39.26l0,0c-.36-.73,1.49.62.89-.29l0,.05-.24-.56c.14,0,.23.32.51.49-.43-.77.36-.18.09-.72,1.18,1,.31-.46,1.14.07l-.26-.24c-.21-.29.19.1.28.13-.2-.19-.27-.19-.38-.35,0-.62,1-.29,1.58-.39.19-.06-1.23-1.37-.48-.92l.42.51c-.31-.81.52-.48.28-1.19.1.12.23.26.21.28.39.29.2-.17-.07-.45.06,0,.25.24.42.36s-.31-.56.06-.25a.57.57,0,0,1,.11.16c-.13-.19.19-.11-.23-.47.28.1,0-.34.3-.18-.39-.49.36.06-.24-.58.63.65.67.36.43,0,.17.21.25.15.49.44.06-.08,0-.25-.34-.57.88.65-.38-.86.67.06A3.73,3.73,0,0,1,31,23.76c.63.65-.13.26.55.92-.1-.43-.55-1.07-.24-1.08.13,0,.26.3.35.43-.1-.43.37-.26.17-.75a.81.81,0,0,1,.14.2c0-.05.16,0-.13-.26l.05.11a7.39,7.39,0,0,1-1-1.22c.78.88.35.06,1.32,1.19a1.72,1.72,0,0,0-.35-.42c.09,0,.21.13.4.38,0-.26-.4-.53-.3-.62a4.77,4.77,0,0,1,.33.39c-.22-.32-.45-.64-.25-.6s.2.19.17.21c.09-.18-.5-1-.09-.84.57.65.25.15.79.67l-.08-.24L32.58,22c.08-.06-.24-.51,0-.4l.17.27,0-.23-.28-.12c-.2-.35-.67-.66-.43-.61,0,.07.07-.06.42.21h0c-.13-.2-.27-.41-.09-.33s.57.59.69.7c-.4-.48,0-.29-.38-.8a4.81,4.81,0,0,0,.43.45l-.33-.38a1.33,1.33,0,0,1,.42.36c.17,0-.7-.64-.29-.47,0,0,.07.09.11.16.27,0,0-.45.28-.38.56.5,0,.22.52.64.06-.25-.32-1-.05-1l-.08,0c-.73-.77.48.26.2-.17a2.78,2.78,0,0,0,.31.35c.22,0,0-.39-.06-.78l.18.21c.23.12.25-.06.4,0-.17-.21-.1-.22-.4-.48,1.29.9-.21-1,.88-.23,0,0,.12.22.13.21l0-.33a2.9,2.9,0,0,0-.51-.4c-.17-.22-.28-.41-.24-.45a2.34,2.34,0,0,0,.73.68c-.1-.09-.2-.21-.3-.31.66.5-.65-.67-.15-.39l.17.18c-.05-.13-.24-.39-.15-.39.4.36.13.22.44.53,0-.08-.59-.83-.16-.51.08.13,0,.17.12.3.5.38.4.26.51.29h0l.3.1-.14-.09c-.91-1.06,0-.34-.57-1.08.51.71.34.37.76.8a1.87,1.87,0,0,1,.42.32c-.29-.39.36.19-.08-.38.14.13.06,0,.4.32,0-.18-.25-.23-.42-.41-.38-.57.8.35.29-.44-.15-.39-.59-.87-.71-1.22a2.15,2.15,0,0,1,.47.54c.27.14.28.06.18-.16a2.33,2.33,0,0,0,.39.36c0-.08-.47-.53-.21-.39a7.34,7.34,0,0,1,.51.6c-.07-.18-.28-.49-.34-.67a2.6,2.6,0,0,1,.46.57,1.38,1.38,0,0,0-.41-.78l-.18-.1s.34.32.39.41c.25.35-.21-.06-.35-.19l0-.13c-.85-.77,0,.29-.15.32L36.18,16l.41.57A2.32,2.32,0,0,1,36,16c-.35-.23.15.26-.22,0a.44.44,0,0,1-.1-.11l.12.23c-.11-.13-.43-.4-.31-.35-.44-.24.28.6-.2.2l0-.05c.06.34.42.45.82,1.06L35,16l.42.45s-.09,0-.26-.18c.25.35.2.18.45.49-.46-.33,0,.37-.71-.3.3.35.32.19.47.49-.76-.72,0,.21-.36-.06s-.1-.26-.51-.54c.61.68-.26,0-.19.16.51.52.1.33.18.59-.17-.18-.45-.11-.72-.21l-.09-.09c.51.53.32.52.37.69a3.15,3.15,0,0,1-.53-.62l-.06.06a.92.92,0,0,1,.25.39l-.38-.4c0,.1.3.61-.06.45.36.37,1.09.93,1.23,1.28a5.37,5.37,0,0,1-.6-.63s.13.19,0,.13l-.28-.37c-.2-.1.25.3.18.3-.28-.28-.23-.17-.44-.4,0,0,.14.09,0,0a1.35,1.35,0,0,1-.54-.32c.16.16.38.38.38.45s-.36-.31-.55-.41c.18.21-.07.06.34.48,0,0-.22-.17-.34-.27.14.22-.14.24.35.64l0,0v0h0c.28.55-.51,0-.47.36l-.14-.14c.08.23-.08.27.16.62,0,0-.31-.2-.46-.37,0,.16.19.33-.13.18s-.23-.19-.11-.24c-.2,0-.44-.25-.15.22-.32-.39-.51-.39-.44-.25l.32.21c0,.09-.06.09-.13.1l-.45-.49c-.73-.41.68,1.26-.4.43.29.37.32.14.67.57-.14,0-.89-.59-.92-.57-.36-.16.6.78.31.71a3,3,0,0,1,.72.83,2.84,2.84,0,0,1-.88-.8s.07,0,.12.07a.75.75,0,0,0-.29-.34l.16.18c-.21-.13-.29,0-.54-.31a.64.64,0,0,0,.38.34c-.34-.15-.16.14-.42.08a1.21,1.21,0,0,1,.3.27c-.35-.06.26.38.24.55-.32-.2-.6-.63-.48-.32a1.87,1.87,0,0,1-.57-.59c.23.41-.38-.05-.49-.05l-.09-.19c0,.11,0,.13,0,.16l.37.3A.4.4,0,0,1,29,19.6c.19.25.58.54.82.9-.21-.14.07.29-.39-.14.27,0-.46-.43-.43-.6,0,.07,0,.09-.08.06a.45.45,0,0,1-.1-.13c-.51-.29.45.55.32.66-.23-.27-.5-.45-.46-.38s.44.4.59.63c-.27-.12.06.23,0,.24l.14.05c.23.27.16.27.19.4-.2-.19-.09-.18-.19-.25.38.5-.59-.33-.37.05-.2-.13-.47-.47-.62-.55.24.41-.44-.25-.27.11a1.72,1.72,0,0,1,.55.62l-.08-.39.39.59c.05,0-.11-.31,0-.28a1.53,1.53,0,0,0,.46.49c-.57-.44.16.42-.25.15L28.4,21c-.49-.27.23.62-.12.55l.19.1c.31.35,0,.14,0,.32a3.32,3.32,0,0,0-.6-.51c.21.2-.12.08.42.65l-.43-.3c-.26,0,.67.93.46.94-.27-.33-.52-.48-.66-.77,0,0-.12,0,.07.21-.2-.15.27.48,0,.25.11.13.4.43.33.45l-.14-.14a2.5,2.5,0,0,0,.47.53c-1-.76-.25.38-1.1-.27a1,1,0,0,1-.05.46c-.08-.09-.14-.14-.1-.13-.36-.15.74.87.34.69-.51-.39-.18-.3-.39-.44-.94-.9,0,.27-.63-.19l0-.07c-.37-.26.21.49.05.52l-.14-.14a2.07,2.07,0,0,1,.47,1,3.23,3.23,0,0,0-.53-.58c0,.09.59.57.61.76a6.72,6.72,0,0,1-.85-.66l.06-.1c-.55-.47-.09.12-.22.07L25.67,24c-.05.2.5.75.33.84l.18.16c.48.62-.37-.25,0,.23l-.58-.54a4.68,4.68,0,0,1,.4.89,6.27,6.27,0,0,1-.66-1.08c-.06,0-.12.2.13.5,0-.07-.15-.23,0-.16q.57.73.42.87c-1.07-1.1-.52,0-1.42-.81.23.56-.5.15-.62.41.9.77,0,.08.84.93,0,.1,0,.1-.08.05l-.65-.38c-.28-.22-.15-.23-.35-.42-.16,0-.4-.33-.7-.49.32.29.41.47.24.41l.47.32c.33.6-.84-.61-.52,0l-.23-.31c.09.23-.26.25.36,1a1.65,1.65,0,0,1-.39-.41c-.28.07.36,1.12-.2.82l-.19-.22c0,.09.34.45.09.27-.09-.09-.2-.22-.23-.22s.29.46.12.37l-.2-.27c-.44-.11.33.83.34,1.11a2.24,2.24,0,0,0-1.12-.73l-.09-.09c-.26.11.2.84.26,1.26-.78-.57-.65.09-1.2-.11a2.26,2.26,0,0,1,.51.58c-.17-.09.31.54-.25,0h0c-.6-.53-.53-.29-.61-.24l.73.76c-1.26-.92-.05.85-1.12,0,.15.23.09.28.24.51l-.4-.4c-.22,0-.33,0-.38.26l-.25-.32c-.11.06,1,1.26,1,1.35l-.62-.57c-.13.15-.8-.23-.4.45-.08-.09-.25-.27-.25-.32s-.66-.14.18.65c-.53-.53-.2.1,0,.41l-.38-.41c.44.57.58.71.63.94-.08,0-.34-.3-.21-.23-.28-.13.32.43,0,.31l-.22-.28c-.1,0,0,.17.29.5s-.23,0-.6-.31c.21.23.46.56.31.5a1.34,1.34,0,0,1-.24-.28c-.39-.14.28.64-.19.34l-.25-.22c.1-.09.2-.14.22-.11a6.41,6.41,0,0,1-.94-.91c.21.34.7,1,.45.94l-.13-.11,0-.05c-.05,0,0,0,0,.11s-.14-.07-.17,0c-.31-.29-.25-.07-.3-.05.4.4.28.38.66.66,0,0,0,0,0-.09a.33.33,0,0,0,0-.06l0,0,.07-.13c.18.24.31.44.05.26l.59.7c-.61-.5-1-.7-1.37-1a1.69,1.69,0,0,0,.54,1.25c.06.13-.25-.17-.38-.28s0-.11-.12-.22c.12.26-.13.27.38.81-.32-.15-.43-.53-.47-.33l-.14-.17c-1.06-.6,1,1.71-.37.89a1.19,1.19,0,0,1,.21.15c-.76-.18-.15,1-1.19.59-.23-.07.09.27.3.57l-.45-.41.41.58c.24.48-1.26-.84-.73,0l.31.27c-.11,0,0,.34-.33,0,.05.06.28.32.11.19l-.22-.22.24.52c-.26-.06-.87-.91-1.06-.8a3.44,3.44,0,0,0,.66.94s.19.08.42.3l.06.17A10.57,10.57,0,0,0,17,38.76l-.31-.49.35.29-.06.09c.35.26.11,0,0-.25a1.94,1.94,0,0,0,.39.32L16.78,38c.27.25.48.55.68.64-.25-.34-.62-.54-.74-.8.34.26.57.51.36.21a1.56,1.56,0,0,1,.33.37c-.16-.25,0-.2-.29-.57.41.32.05-.25.67.38a2.51,2.51,0,0,1-.4-.64c.67.82.2-.11,1,.71-.62-.72-.1-.49-.37-1,0,0,.14.17.1.15s.33.18.49.28a7,7,0,0,1-.88-1.17,14.07,14.07,0,0,1,1.14,1.19c-.45-.45-.33-.57-.73-.92a4.63,4.63,0,0,1,.69.55c-.68-.7-.07-.16-.45-.63.42.26.67.63.54.33A1.68,1.68,0,0,1,19.32,37.62Zm.76-3.15h0s0,0,0,.06A.2.2,0,0,1,20.08,34.47Zm.15-.17a.1.1,0,0,0-.08.05c-.15-.13-.28-.28-.26-.29A1.35,1.35,0,0,0,20.23,34.3Zm-3.1-2.41c0-.08.06,0,.14.06a.46.46,0,0,0,0,.1l0,.05Z"/><path class="cls-1" d="M17.61,32.46s0,0,0,0l.11.07-.12-.13Z"/><path class="cls-1" d="M33.05,18.19h0s0,0,.06.05Z"/><polygon class="cls-1" points="23.26 32.8 23.16 32.7 23.23 32.8 23.26 32.8"/><path class="cls-1" d="M35.31,18.65a.94.94,0,0,0,.12.09Z"/><path class="cls-1" d="M35.79,18.35l.2.09A.72.72,0,0,0,35.79,18.35Z"/><path class="cls-1" d="M36.29,18.25l-.16-.18h0Z"/><path class="cls-1" d="M32,23.48a0,0,0,0,0,0,0C32.05,23.62,32,23.57,32,23.48Z"/><path class="cls-1" d="M32.48,21.13a1.31,1.31,0,0,1,.14.24C32.68,21.37,32.71,21.36,32.48,21.13Z"/><path class="cls-1" d="M30.89,25.54h0a0,0,0,0,0,0,0Z"/><path class="cls-1" d="M32.55,21.43c.11.05.11,0,.07-.06S32.51,21.35,32.55,21.43Z"/><path class="cls-1" d="M37.77,17.13h0l-.06-.06Z"/><path class="cls-1" d="M37.74,17.07l0-.07S37.7,17,37.74,17.07Z"/><path class="cls-1" d="M37.64,16.87l.07.13S37.75,17,37.64,16.87Z"/><path class="cls-1" d="M37.19,17.34l.14.15Z"/><path class="cls-1" d="M37.11,17.5c.06,0,.38.24.33.11l-.11-.12C37.52,17.72,36.89,17.23,37.11,17.5Z"/><path class="cls-1" d="M34.83,16.23H35c-.17-.14-.4-.32-.39-.4C34.06,15.51,35,16.16,34.83,16.23Z"/><path class="cls-1" d="M34.29,16.32c0-.13-.22-.23-.31-.32A.64.64,0,0,0,34.29,16.32Z"/><path class="cls-1" d="M32,18.58l-.35-.37C31.68,18.31,31.81,18.35,32,18.58Z"/><polygon class="cls-1" points="33.46 20.88 33.73 21.07 33.41 20.71 33.46 20.88"/><polygon class="cls-1" points="30.63 18.56 30.59 18.49 30.66 18.69 30.63 18.56"/><path class="cls-1" d="M27,22.49l.46.44C27.36,22.82,26.87,22.31,27,22.49Z"/><path class="cls-1" d="M25.77,24.59c-.24-.21-.43-.3-.24-.06C25.6,24.53,25.81,24.66,25.77,24.59Z"/><polygon class="cls-1" points="20.12 28.79 20 28.61 20.06 28.79 20.12 28.79"/><path class="cls-1" d="M37,37.77c.13-.11.4-.39.31-.36l-.49.44Z"/><path class="cls-1" d="M37.68,36.7a7.29,7.29,0,0,0-1.11,1c.49-.42.31-.22.88-.72.09,0-.09.21-.27.38.13-.11,0,.15.26-.13s.28-.47-.07-.22A2.27,2.27,0,0,1,37.68,36.7Z"/><path class="cls-1" d="M35.34,32.9l0,.07Z"/><path class="cls-1" d="M33.7,30.74a.4.4,0,0,0,.12-.08A.16.16,0,0,0,33.7,30.74Z"/><path class="cls-1" d="M33.89,29.9l0,.05C33.91,29.9,33.93,29.86,33.89,29.9Z"/><path class="cls-1" d="M35.34,32.9l.1-.2C35.28,32.85,35.35,32.84,35.34,32.9Z"/><path class="cls-1" d="M36.13,37.4l.15-.09-.08,0Z"/><path class="cls-1" d="M36.56,33.35l0,0,.2-.18Z"/><path class="cls-1" d="M37.28,33.93a5.71,5.71,0,0,0-.58.53,1.82,1.82,0,0,1,.3-.25Z"/><path class="cls-1" d="M37.6,35.65l.07,0Z"/><path class="cls-1" d="M36.19,32.81l.13-.15Z"/><path class="cls-1" d="M15.2,17.79a.46.46,0,0,1,.07-.07S15.19,17.78,15.2,17.79Z"/><path class="cls-1" d="M16.42,15.07h0l.23-.22Z"/><path class="cls-1" d="M33.8,28.79h0C33.86,28.77,33.84,28.77,33.8,28.79Z"/><path class="cls-1" d="M28.05,23.63c-.29.41-.55.35-.86.84C27.34,24.31,27.9,23.93,28.05,23.63Z"/><path class="cls-1" d="M36.16,37.33l0,0S36.14,37.34,36.16,37.33Z"/><path class="cls-1" d="M27.19,24.47h0l0,.05Z"/><path class="cls-1" d="M32.19,27.66l-.16.19Z"/><path class="cls-1" d="M32.65,29.25l0-.08A.11.11,0,0,0,32.65,29.25Z"/><path class="cls-1" d="M31.1,27.69s.07-.1,0-.07a.21.21,0,0,0,0,.06C31.12,27.63,31.15,27.61,31.1,27.69Z"/><path class="cls-1" d="M30.55,27.14l-.07.09h0Z"/><path class="cls-1" d="M17.06,19.27l.34-.38C17.12,19.18,16.94,19.2,17.06,19.27Z"/><path class="cls-1" d="M36.35,37.18a.64.64,0,0,1-.19.15h0A1,1,0,0,0,36.35,37.18Z"/><path class="cls-1" d="M27.94,30.8l0-.14A.13.13,0,0,0,27.94,30.8Z"/><path class="cls-1" d="M21.08,23.17l-.07,0S21,23.21,21.08,23.17Z"/><path class="cls-1" d="M27.6,30.46a2,2,0,0,0,.22-.33l-.11.1Z"/><path class="cls-1" d="M17.4,18.89Z"/><path class="cls-1" d="M15.88,19.25c.07.1.55-.47.87-.75.24-.05-.34.43-.57.73.2-.07.72-.51.75-.44a2.28,2.28,0,0,1-.22.23c.48-.35.21.17.81-.27l-.12.14c.25-.28.51-.54.71-.73,0,0,.39-.26.07.09,0,0-.16.11-.27.2l.19-.11c-.46.53-.23.12-.59.48.23-.08.73-.4.65-.2-.47.49-.3,0-.65.53l.09-.27c-.68.82,0-.11-.74.76,0,.26.37-.11.35.15.3-.24.39-.4.68-.64.65-.31-1.07,1.34-.31.82.35-.29,1-.88.74-.47l-.57.51c.06.17.85-.71.6-.23-.23.19-.27.09-.32.17-.35.51.37-.25.43-.19l-.47.5c.2,0,.68-.17.9-.12a2.29,2.29,0,0,0-.44.44c.42-.07.31.43.19.88l.48-.35a.88.88,0,0,1-.26.27c-.09.23.27-.25.46-.39.07,0-.19.29-.33.39.46-.24,1.08-.43.75.13l-.14.1c-.08.26.95-.74.65-.27l-.09.06c0,.38.63.22.16,1,.63-.57-.07.46.78-.36a4.1,4.1,0,0,0-.59,1.09c0,.08.58-.46.72-.49l-.43.44.53-.39-.48.56L21,23.2a1.24,1.24,0,0,1,.28-.36c.28-.12-.11.5-.33.72l.55-.18a2.26,2.26,0,0,1-.4.29c.54-.35-.45.48.05.16.09-.11.27-.25.36-.34-.22.31-.12.42.07.38l-.31.29c.06.21.43.14.58.31a2.29,2.29,0,0,1,.72-.71l-.45.48c.32-.26.13-.23.54-.51,0,.11-.49.56-.67.68l.23-.09c-.13.14-.22.19-.4.37.31-.26-.34.58.2.12l-.14.15c.16.15.38.07.53.17a4.63,4.63,0,0,1,.72-.54c0,.22-.24.63-.09.71.27-.12.36-.31.63-.51-.36.37-.21.44-.53.65.19.07.24.1.71,0a1.87,1.87,0,0,1,.31-.36c.09,0-.09.22-.26.39l-.05,0c.73-.35-.61,1.5.29.89l0,0,.55-.23c0,.13-.32.22-.49.5.78-.43.18.36.73.1-1,1.17.46.31-.08,1.13l.24-.26c.29-.2-.1.19-.13.28.2-.2.19-.27.35-.38.62,0,.29,1,.4,1.58.05.19,1.37-1.23.92-.48l-.51.43c.8-.32.47.51,1.19.27-.13.1-.27.24-.29.21-.29.39.17.21.45-.07,0,.07-.24.26-.36.42s.56-.31.25.06a.57.57,0,0,1-.16.11c.19-.13.11.2.47-.23-.1.28.34,0,.18.3.49-.39-.06.37.58-.24-.65.64-.36.67,0,.43-.22.17-.16.25-.45.49.08.06.25,0,.57-.34-.64.88.86-.38-.06.67A4,4,0,0,1,29.73,31c-.65.63-.26-.12-.92.55.43-.1,1.07-.55,1.08-.23-.05.13-.3.25-.43.34.43-.1.26.38.75.17a1.3,1.3,0,0,1-.2.15s0,.16.26-.14l-.11.05a8.64,8.64,0,0,1,1.22-1c-.88.78-.06.35-1.19,1.33a2,2,0,0,0,.42-.35,1.11,1.11,0,0,1-.38.4c.26-.06.53-.4.62-.3-.14.14-.21.17-.39.33.32-.23.64-.46.6-.26s-.19.2-.21.17c.18.1,1-.49.84-.08-.65.56-.15.25-.67.78l.24-.07.22-.29c.06.08.51-.25.4,0l-.27.16.23,0,.12-.27c.35-.2.66-.68.61-.44-.07,0,.06.08-.21.43h0c.2-.14.41-.28.33-.1s-.59.58-.7.7c.48-.41.29,0,.8-.39-.12.1-.4.37-.45.43l.38-.33a1.45,1.45,0,0,1-.36.43c0,.16.64-.7.47-.3a1.42,1.42,0,0,1-.16.11c0,.27.45,0,.38.28-.5.56-.22,0-.64.52.25.06,1-.32,1,0l0-.09c.77-.73-.26.48.17.2a2.55,2.55,0,0,0-.35.32c0,.22.39,0,.78-.06l-.21.17c-.12.23.06.26,0,.41a2,2,0,0,0,.48-.41c-.9,1.3,1-.21.23.88,0,0-.22.12-.21.14l.33,0a3.32,3.32,0,0,0,.4-.5c.22-.18.41-.28.45-.25a2.37,2.37,0,0,0-.68.74c.09-.1.21-.21.31-.31-.5.66.67-.64.39-.14l-.18.16c.13-.05.39-.24.39-.14-.36.39-.22.13-.53.44.08,0,.83-.6.51-.17-.13.08-.17,0-.3.13-.38.5-.27.39-.29.51v0l-.09.31.09-.15c1.06-.91.34,0,1.08-.57-.71.52-.37.34-.8.76a2,2,0,0,1-.32.43c.39-.3-.19.35.38-.08-.13.14,0,.06-.32.4.17-.05.23-.26.41-.43.56-.37-.35.8.44.3.39-.15.87-.59,1.22-.71a2.15,2.15,0,0,1-.54.47c-.14.26-.06.27.16.17a2.44,2.44,0,0,0-.36.4c.08,0,.53-.48.39-.21s-.42.37-.6.51c.18-.08.49-.28.67-.35a3,3,0,0,1-.57.47,1.49,1.49,0,0,0,.78-.42l.09-.17s-.31.34-.4.39c-.35.24.06-.21.19-.35l.13-.05c.77-.85-.29,0-.32-.16l.62-.55-.57.4a2.51,2.51,0,0,1,.58-.56c.23-.35-.26.16,0-.21a.44.44,0,0,1,.11-.1l-.24.12c.14-.12.41-.43.36-.31.24-.44-.6.28-.2-.21l0,0c-.34.06-.45.42-1.06.82l1-1.14-.45.42s0-.09.18-.26c-.35.24-.18.2-.49.44.33-.46-.37,0,.3-.71-.35.31-.19.32-.49.48.72-.76-.21,0,.06-.37s.26-.1.54-.5c-.68.61,0-.27-.16-.2-.52.52-.33.1-.59.18.18-.16.11-.45.21-.72l.09-.08c-.53.5-.52.32-.69.36a2.7,2.7,0,0,1,.62-.52l-.06-.06a1,1,0,0,1-.39.24l.4-.37c-.1-.06-.61.3-.45-.06-.37.35-.93,1.09-1.28,1.22a4.45,4.45,0,0,1,.63-.59s-.19.13-.13,0l.37-.29c.1-.19-.3.25-.3.18.28-.27.17-.22.4-.44,0,0-.09.15,0,.05a1.34,1.34,0,0,1,.32-.53,2,2,0,0,1-.45.38c-.1-.06.31-.36.41-.55-.21.17-.06-.08-.48.34,0,0,.17-.23.27-.35-.22.14-.24-.14-.64.35l0,0h0c-.55.29,0-.51-.36-.46l.14-.14c-.23.08-.27-.08-.62.16,0,0,.2-.31.37-.47-.16.05-.33.2-.18-.12s.19-.24.24-.12c0-.2.25-.44-.22-.14.39-.33.39-.51.25-.44l-.2.31c-.1,0-.1-.06-.11-.13l.49-.45c.41-.73-1.26.69-.43-.39-.37.28-.14.32-.57.66a7.67,7.67,0,0,1,.57-.91c.16-.36-.78.59-.71.31a3,3,0,0,1-.83.72,2.63,2.63,0,0,1,.8-.88s0,.06-.07.12a.75.75,0,0,0,.34-.29l-.18.16c.14-.21,0-.3.32-.55a.66.66,0,0,0-.35.38c.15-.34-.14-.15-.08-.41-.07.1-.25.32-.27.3.07-.35-.38.25-.55.23.2-.31.63-.59.32-.47a1.91,1.91,0,0,1,.59-.58c-.41.24,0-.37.06-.48l.18-.09c-.11.05-.13,0-.15,0l-.31.36a.43.43,0,0,1,.15-.25c-.25.19-.54.58-.9.83.14-.21-.29.07.14-.39,0,.27.44-.46.6-.43-.07,0-.09,0-.06-.08a.53.53,0,0,1,.13-.11c.29-.51-.55.45-.66.33.27-.24.45-.5.38-.47s-.4.44-.63.59c.12-.27-.23.07-.24,0l0,.13c-.27.24-.27.17-.4.2.19-.2.18-.09.25-.2-.5.39.33-.58-.05-.36.13-.21.47-.48.55-.63-.41.24.25-.44-.11-.26a1.81,1.81,0,0,1-.62.55l.39-.08L32,29c0,.05.31-.12.28,0a1.62,1.62,0,0,0-.49.45c.44-.57-.42.17-.15-.25l.84-.83c.26-.48-.63.23-.56-.12l-.1.19c-.35.31-.14,0-.32.05a4.18,4.18,0,0,0,.51-.6c-.2.21-.08-.13-.65.42l.3-.43c0-.27-.93.66-.94.45a5.94,5.94,0,0,1,.77-.66s0-.12-.21.07c.16-.19-.48.28-.24,0-.14.1-.44.39-.46.33a.83.83,0,0,1,.14-.14,2.44,2.44,0,0,0-.53.47c.76-1-.38-.26.27-1.11a.82.82,0,0,1-.46-.05c.09-.07.14-.13.13-.09.16-.36-.87.74-.69.33.39-.51.3-.18.44-.39.9-.93-.27,0,.19-.63l.08,0c.25-.37-.5.2-.53,0l.14-.14a2,2,0,0,1-1,.47,3.23,3.23,0,0,0,.58-.53c-.09,0-.57.6-.76.62a5.55,5.55,0,0,1,.67-.86l.09.06c.47-.54-.11-.08-.07-.21l.23-.22c-.19-.05-.75.51-.84.34l-.15.18c-.63.48.24-.37-.23,0l.53-.58a5.35,5.35,0,0,1-.89.39A7,7,0,0,1,29,25.24s-.2-.12-.5.13c.07,0,.23-.14.16,0-.49.38-.78.52-.86.42,1.09-1.07,0-.51.8-1.42-.56.24-.15-.5-.41-.62-.77.91-.08,0-.93.84-.1,0-.1,0,0-.08l.38-.65c.22-.28.24-.15.43-.34,0-.17.32-.41.49-.71-.3.33-.48.41-.42.24l-.32.48c-.59.32.61-.85,0-.53l.31-.23c-.23.09-.25-.26-1,.37a1.38,1.38,0,0,1,.4-.4c-.07-.27-1.11.36-.82-.19l.23-.2c-.1,0-.45.34-.28.09.09-.09.22-.2.22-.23s-.45.29-.37.13l.27-.21c.12-.44-.83.33-1.11.34.62-.62.7-.95.73-1.12l.09-.08c-.11-.27-.84.19-1.26.26.57-.79-.08-.66.12-1.21a2.27,2.27,0,0,1-.59.51c.09-.17-.54.32,0-.25v0C25.27,20,25,20,25,20l-.75.74c.91-1.26-.86-.06,0-1.13-.23.15-.28.09-.5.24l.4-.4c0-.22,0-.33-.26-.37l.31-.26c-.05-.11-1.25,1-1.35,1l.57-.62c-.15-.13.24-.8-.44-.39.09-.09.26-.26.31-.26s.15-.66-.65.18c.53-.53-.09-.19-.4,0l.4-.38c-.57.44-.71.58-.93.63,0-.08.29-.34.22-.21.14-.28-.43.32-.3,0l.28-.22c0-.1-.17,0-.51.3s0-.24.31-.61c-.23.21-.56.46-.5.31a1.34,1.34,0,0,1,.28-.24c.15-.39-.64.28-.34-.19a2.16,2.16,0,0,0,.22-.25c.09.1.15.2.11.23a6.44,6.44,0,0,1,.91-.95c-.33.21-1,.7-.94.45l.12-.13,0,0c0-.05,0,0-.1,0s.06-.14,0-.17c.3-.31.08-.25.05-.3-.39.4-.38.28-.66.66,0,0,0,0,.1,0l.06,0,0,0a.31.31,0,0,1,.12.07c-.23.17-.43.3-.26,0l-.69.59c.5-.61.7-1,1-1.37a1.75,1.75,0,0,0-1.25.54c-.13.06.18-.25.28-.38s.11,0,.23-.12c-.26.12-.28-.13-.82.38.16-.32.53-.43.33-.47l.18-.14c.6-1.06-1.71,1-.9-.37a1.08,1.08,0,0,1-.15.22c.18-.77-1-.16-.58-1.2.07-.23-.27.09-.58.3l.41-.45-.58.41c-.48.24.84-1.26,0-.73l-.27.31c0-.11-.35,0,0-.33-.05.05-.31.28-.18.11l.22-.22-.52.24c.06-.26.9-.87.79-1.06a3.67,3.67,0,0,0-.94.66s-.08.19-.3.42l-.17.06a10.47,10.47,0,0,0-1.71,1.87l.49-.31-.29.35-.1-.06c-.26.35,0,.11.25,0a2.12,2.12,0,0,0-.31.38l.71-.54c-.25.27-.55.48-.63.68.33-.26.54-.62.8-.75-.26.35-.52.58-.21.37a1.39,1.39,0,0,1-.38.33c.25-.16.21,0,.58-.29-.33.41.25.05-.38.67a2.49,2.49,0,0,1,.63-.4c-.82.67.11.2-.71,1,.73-.62.5-.1,1-.37-.06,0-.18.14-.15.1s-.19.33-.28.49a6.64,6.64,0,0,1,1.16-.88,14,14,0,0,1-1.18,1.14c.44-.45.56-.33.91-.73a4.05,4.05,0,0,1-.55.69c.71-.68.17-.07.64-.45-.27.42-.63.67-.34.54A1.57,1.57,0,0,1,15.88,19.25ZM19,20h0Zm.17.15a.16.16,0,0,0-.06-.08c.13-.15.28-.28.29-.26A1.55,1.55,0,0,0,19.2,20.16Zm2.41-3.1c.08,0,0,.06-.07.14h-.09l-.05,0Z"/><path class="cls-1" d="M21,17.54l0,0-.08.1.14-.11Z"/><path class="cls-1" d="M35.3,33h0l-.05.06Z"/><polygon class="cls-1" points="20.7 23.19 20.8 23.09 20.7 23.16 20.7 23.19"/><path class="cls-1" d="M34.84,35.25l-.09.11A.59.59,0,0,0,34.84,35.25Z"/><path class="cls-1" d="M35.14,35.73l-.09.2A.88.88,0,0,0,35.14,35.73Z"/><path class="cls-1" d="M35.24,36.23l.18-.17h0Z"/><path class="cls-1" d="M30,31.93h0C29.88,32,29.92,32,30,31.93Z"/><path class="cls-1" d="M32.36,32.42l-.24.14S32.13,32.64,32.36,32.42Z"/><path class="cls-1" d="M28,30.82h0Z"/><path class="cls-1" d="M32.06,32.49c-.05.1,0,.1.06.07S32.14,32.45,32.06,32.49Z"/><path class="cls-1" d="M36.36,37.71v0l.06-.07Z"/><path class="cls-1" d="M36.42,37.67l.07,0S36.47,37.63,36.42,37.67Z"/><path class="cls-1" d="M36.62,37.58l-.13.06S36.5,37.68,36.62,37.58Z"/><path class="cls-1" d="M36.15,37.13l-.15.13Z"/><path class="cls-1" d="M36,37.05c0,.06-.23.38-.1.33l.12-.12C35.76,37.46,36.26,36.83,36,37.05Z"/><path class="cls-1" d="M37.26,34.76V35c.14-.17.32-.4.4-.39C38,34,37.33,35,37.26,34.76Z"/><path class="cls-1" d="M37.17,34.23c.13,0,.23-.23.32-.31A.61.61,0,0,0,37.17,34.23Z"/><path class="cls-1" d="M34.91,32l.37-.36C35.18,31.61,35.14,31.74,34.91,32Z"/><polygon class="cls-1" points="32.61 33.4 32.42 33.66 32.77 33.35 32.61 33.4"/><polygon class="cls-1" points="34.93 30.56 35 30.53 34.8 30.59 34.93 30.56"/><path class="cls-1" d="M31,26.89l-.43.46C30.67,27.3,31.18,26.8,31,26.89Z"/><path class="cls-1" d="M28.9,25.7c.21-.24.31-.43.06-.24C29,25.53,28.83,25.74,28.9,25.7Z"/><polygon class="cls-1" points="24.71 20.05 24.89 19.93 24.7 20 24.71 20.05"/></svg>