<svg id="图层_1" data-name="图层 1" xmlns="http://www.w3.org/2000/svg" xmlns:xlink="http://www.w3.org/1999/xlink" viewBox="0 0 526.58 341.53"><defs><style>.cls-1{fill-rule:evenodd;fill:url(#未命名的渐变_3);}.cls-2{fill:#fff;}</style><linearGradient id="未命名的渐变_3" x1="472.26" y1="1466.67" x2="9.76" y2="1466.67" gradientTransform="matrix(1, 0, 0, -1, 0, 1645.73)" gradientUnits="userSpaceOnUse"><stop offset="0" stop-color="#fff" stop-opacity="0.46"/><stop offset="0.76" stop-color="#fff" stop-opacity="0"/></linearGradient></defs><path class="cls-1" d="M50.26,36.57a20,20,0,0,0-20,20v212a20,20,0,0,0,20,20h298l-12.4,21A7.95,7.95,0,0,0,347.39,320l42.72-31.44h80.15a20,20,0,0,0,20-20v-212a20,20,0,0,0-20-20Z"/><path class="cls-2" d="M50.26,35.9c-.76.09-.33.28,1.77.24l1.49-.33Z"/><path class="cls-2" d="M64.38,36.51c2.47-.16,5.31-.44,3.71-.74-2.44.32-3,.18-5.66.56-2.1,0-3.67-.1-3.31-.23-.75.09-3.27-.07-4.4.14a68.86,68.86,0,0,0,9.81,0C65.31,36.37,64.56,36.45,64.38,36.51Z"/><path class="cls-2" d="M269.58,37l-1.33,0Z"/><path class="cls-2" d="M396.71,37.21a7.92,7.92,0,0,0-1.42.07A6.77,6.77,0,0,0,396.71,37.21Z"/><path class="cls-2" d="M418.42,37.58l-1.28,0A11.86,11.86,0,0,0,418.42,37.58Z"/><path class="cls-2" d="M269.58,37l3.39.1A23.37,23.37,0,0,0,269.58,37Z"/><path class="cls-2" d="M92.67,35.72c-.71,0-1.3,0-1.84.08l1.73,0A.28.28,0,0,1,92.67,35.72Z"/><path class="cls-2" d="M213.53,37.3h-1l-.86.13Z"/><path class="cls-2" d="M170.52,37.35A3.61,3.61,0,0,0,172.2,37a12.86,12.86,0,0,1-2.12.19C170.06,37.2,170.19,37.27,170.52,37.35Z"/><path class="cls-2" d="M102.31,36.85l-1.21,0Z"/><path class="cls-2" d="M244.31,37.36a1.35,1.35,0,0,0,.4.1S244.55,37.39,244.31,37.36Z"/><path class="cls-2" d="M28.94,75s0,0,0,0C29,74.76,28.94,74.69,28.94,75Z"/><path class="cls-2" d="M50.26,36.64l-.69,0c-.07.06-.14.11-.14.16Z"/><path class="cls-2" d="M458.14,37.94H458C456.92,38,457.51,38,458.14,37.94Z"/><path class="cls-2" d="M392.5,287.4c1.5.09,1,.16.1.22l-1.5.1c-.39,0-1.11.06-1.23.1s-.11.1,0,0a2,2,0,0,0,.59.07L392,288C391.42,287.89,397.65,287.57,392.5,287.4Z"/><path class="cls-2" d="M93.79,35.75h0Z"/><path class="cls-2" d="M392,288h0l.65,0Z"/><path class="cls-2" d="M489.06,104.58a8.62,8.62,0,0,0,.12-.94A4.21,4.21,0,0,0,489.06,104.58Z"/><path class="cls-2" d="M480.47,40.33a12.13,12.13,0,0,1,1.31,1A9.12,9.12,0,0,0,480.47,40.33Z"/><path class="cls-2" d="M489.45,140c0,.92-.06,1.23,0,2.48l0-.38A16.38,16.38,0,0,1,489.45,140Z"/><path class="cls-2" d="M489.46,176.83l.05-.68c0-.36,0-.79,0-1.16Z"/><path class="cls-2" d="M29.07,187a13,13,0,0,1,.26-1.7C29.13,185.88,29.06,180.46,29.07,187Z"/><path class="cls-2" d="M92.69,35.87a4.42,4.42,0,0,1,1.1-.12l-1.23,0C92.46,35.81,92.43,35.85,92.69,35.87Z"/><path class="cls-2" d="M491.67,141.48l0,5.86C491.64,145.7,491.66,143.57,491.67,141.48Z"/><path class="cls-2" d="M201.67,289.71l-1.34,0C200.85,289.75,201.32,289.74,201.67,289.71Z"/><path class="cls-2" d="M491.67,164.71c-.1,1-.16,2.15-.19,3.3,0,.24,0,.52.07.68Z"/><path class="cls-2" d="M29.33,185.3h0Z"/><path class="cls-2" d="M28.66,146.73c0,5.58.36,2.62.58,3.81.1,6.65-.28,3.08-.47,5.34.1,4.16.44,7.35.43,10.45-.06.23-.09.83-.16.13.29,4.39,0,13,.38,18.17a3.71,3.71,0,0,1-.09.67c.18-.83.37-1,.51-.79a40.92,40.92,0,0,1,0,5.58,12.08,12.08,0,0,0-.17-2.38l.11,2.63c-.35,2.35-.12-3.58-.38-3.58.11,5.11.4,11.06.3,15-.34.82-.11-9.16-.41-3.93l.13-6.06c-.54,4.63,0-3.68-.54.57-.1,8,.17,8.92.07,16.87.19,1.79.28-.59.47,1.2.34,11.31-.85,8.9-.4,17.21a37.42,37.42,0,0,1,.43,8.91l-.38-2c0,7.72.55,4.4.29,12.49-.15-1.44-.13-6.07-.17-4.9-.31,5.24.21,3.7.21,7.73l-.34.83c.06,4.11.12,8.43.18,12.86l.06,3.34,0,1.68.12,1.77a21.7,21.7,0,0,0,1.83,6.82c-.17-.21-.42-.69-.53-.86s-.16,0,.28,1.05a22.11,22.11,0,0,0,5.63,7.36,21.57,21.57,0,0,0,13.19,5.07c1.55.06,3,.06,4.5.09L63,290l4.23-.29c1,0,1.83.13.76.19,4.32.11.22-.19,2.3-.3,2.45,0,3.24.17,1.69.26,7.61-.25,21.69-.54,29.71-.23l-1.56.09c6.25.12,7-.6,12.84-.33l-1.11,0c13.56.13,28.55-.14,38.9.31,2-.43,13.42.18,14.29-.4,7.74.29,5.53.39,16.43.59,2.91,0,4.34-.37,7.94-.43l.09.31,4.89-.33,2.6.37,3.38-.08a9.36,9.36,0,0,1-2.66-.22c2.64-.07,5.86,0,8.43.07a37.41,37.41,0,0,1,4.56.3l12.48-.26a38,38,0,0,1-4,.24c6.67-.31,1.21.33,7.32,0-.82-.07.44-.18.58-.25,3,.19,10,.19,15.1.11l-1,.22c9.26.05,19.52-.11,29.91-.1-3.73-.1-2.87-.47.17-.5l1.22.32c2-.2-3.18-.12.86-.37,3.88,0,2.61.37.38.48l4.72-.11c.28.09-.83.14-1.12.27,1.94-.2,8.15.33,10.94,0l.27.1,23.55-.12c.17-.29,3.48-.22,6-.45,6.21.09,13.12.31,20.61.29,5.26-.14,1.53-.24,3.9-.41a6.22,6.22,0,0,0,1.33.15c.64,0,1.77.06,1.8.09.52,0,.61.08,0,.18h.45c-1.52,2.61-2.56,4.42-3.74,6.46l-5.73,10.07c.72-1,1.46-2.18,1.17-1.51a19.79,19.79,0,0,1-2.43,3.67l.25-.48-.58,1a10,10,0,0,0-.59,1.23,9,9,0,0,0-.61,2.72,9,9,0,0,0,11.93,9.16,10.15,10.15,0,0,0,2.59-1.38l2.11-1.48,4-2.88c2.59-1.88,5-3.65,6.91-5.26l-.44.36,8.33-6.48c3.93-2.83-2.23,1.88.75-.12,4.21-3.34,7.67-5.89,10.94-8.26l4.82-3.5,2.43-1.79,1.23-.93.63-.48.35-.27h.37l.77,0c7.25.75,25.72-.06,35.5.43l-.56-.18a33.49,33.49,0,0,1,4.92.14c-.27-.14-2.74-.16-1.17-.26,10.71-.1,21.76,0,32.88.07l4.17.05c1.41,0,2.73.07,4.26,0a21.36,21.36,0,0,0,19.51-15.75,15.31,15.31,0,0,0,.51-2.67,10.39,10.39,0,0,0,.07-1.87,18.31,18.31,0,0,0-.22-2.37,43.44,43.44,0,0,1-.11-8.12l.33,2.87c-.4-16.21,0-33.14-.32-49a18.89,18.89,0,0,1,.17,2.53c.12-1.68.12-4.78.07-7.46a38.29,38.29,0,0,0-.25-5c0-2.47.17-.58.27-2.1.15-3.36-.3-8.44-.06-10.22a8.9,8.9,0,0,1,.09,1.56c-.11-2.19,0-10.21-.24-8.11.13-6-.13-11.39,0-16.14-.31-3.1.15-10.2-.29-11.18.45.43.36-10.44.15-14.2.14,1.26.14-3.28.33-1.8,0-4.3-.09-8.24-.32-7.49.54-7.91-.44-15.91.26-20.37-.25-12.76-.41-24.57-.52-36,.45.41.05,12.69.52,12.2-.18-10.9-.57-17.18-.46-28,.06-2.8.19,1.59.27,2.53,0-1.36,0-2.71-.05-4.05,0-.66,0-1.33,0-2s0-1.33-.05-2a21.26,21.26,0,0,0-1.94-7.91,20.51,20.51,0,0,0-11.14-10.5,14.33,14.33,0,0,1,2,.81c-1.78-1-4.31-1.83-4.16-1.53.64.13,1.24.39,1.86.58.72.34.6.38,0,.24s-1.62-.47-2.8-.66a19.15,19.15,0,0,0-5.32-.27c3.24-.59-9.56-.15-4.41-.89-1.26,0-2.84.13-2.55.27-1.86,0-2.45-.12-.56-.27-6.84.11-4.41.33-10.6.32a16.54,16.54,0,0,1,1.91-.25c-3.14.19-6.29.38-11.52.3.32-.06-.29-.14,1.27-.14-9,0-15.32.52-25.18.33,2.91-.43-3.35-.14-3.88-.51l-5.3.11,2.13.18c-4.65,0-8.75.26-12.74.14l3.45-.15-8.71.07,4.93.14c-4.7.19.5.47-5.68.37,1.26,0-4.64,0-7.06-.23h0c-2.3.12-4.66.25-8.09.15-.9-.11.71-.41.13-.49-2.26.31-10.87.09-13.75.42,1-.08,1-.27.7-.31l-1.91.25c-2.15-.08-2.46-.12-2.11-.28-6.47,0,2.05.48-5.63.27.61,0,.32,0,1.57-.09-7.71-.11-14.9.16-22,0-2.09-.37,6.19-.09,3.8-.41-10.22.07-21.16.45-31.05.37l1.84,0c-1.37.53-7.37-.26-12.37,0,1.23,0,1.61-.3,1.28-.24-6.78-.09-13.85.13-24.11.3l1.27-.14c-4-.12-10.51-.07-14.83-.13-1.28.13-3.74.11-2.24.31-13.3-.77-25.36.42-37.16-.23,1.41,0,3.36-.12,2.24-.12l-10,.13a21.26,21.26,0,0,0,3.43.32c-1.27.13-4.11.24-6.6.24,4.52-.15,0-.37-2-.5.33.07-.34.15-.17.22-5.25-.41-.88.47-8,.19l.38-.12c-2.68.06-5.15.22-8.05.18-1.2-.26,2.86-.12,3-.34-4.06,0-8,.51-11.69.24l5.93-.15c-4-.31-4.47-.23-7.44-.28H182l-6.87-.14,1.75.09c-5.09.69-10.35.12-17.2.58,6.65-.43,1.1-.25,1.61-.55-1.75-.09-4.41-.18-3.65-.27-3.24.25-5.4-.19-10,.17-.21-.1-3.46,0-2.73-.26-4.21.08,1,.17.64.3-6.49.33-15.25-.41-24.58,0-8,.19-9.53.52-17,.68-2.52-.16,2.06-.36,2.06-.36-4.06-.14-7.12-.11-11,0,.78-.09,0-.16-1.19-.27-3.07,0-2.06.36-6.11.21.7-.1,1.59-.28,3.07-.39l-11,.36c-1-.17,2.26-.26,3.58-.37-4.21.08-10.92.16-12.22.43l2.71.09c-1.54,0-.79-.23.34-.28a18.25,18.25,0,0,1,5.41.19L77,36.29c2.75.57,10.73-.1,16.11-.06l-2.25.41,5.52-.34c1.17.11,2,.34-.68.4,3.85.21,3.41-.15,6.72.08.37,0,.2.06-.14.07l3.77-.12c-.74.09.63.29-1.69.23,6.76.24,10.9-.31,13.45,0l-.57,0c9.38-.14.91-.3,8-.66l4.73.75.92-.3c1,0,2.88,0,2.53.15,3.6-.21-.61-.13,1.48-.33,4.65.28,12.84-.13,13.89.36,1.67-.23-4.46-.18.51-.34,1.42.52,5.75-.09,10,.15-1.31.27-5.34.13-1.08.37,2.56-.46,8.28.1,11.87,0,.17-.36,7.8-.15,13.82-.27-.38.12,11.34.2,16.94.33l-.17.06c1.09-.37,6.87-.3,11.07-.37-.16.22-.92.3-3.2.4h4a44.7,44.7,0,0,1,4.73-.22l-1,.27c5.27,0,10.61-.32,17.38-.14.38-.25-5.39-.71,1.77-.88.27.14.54.37-1.34.43.61,0,2.19-.12,3.43-.06l-2.86.24c3.08.1,1.61-.2,4.08-.18-.05.2,1.82.14,1.47.3-.63,0-2.15-.08-3.1,0,2.78,0,6.14.15,7.25.3-.24-.11,0-.27,2-.29,5.27,0,1.8.24,4.87.34,1.28-.14,4.64,0,4.73-.29a11,11,0,0,1,2.42.22c2.72-.13,12.72,0,9.65-.36l-.7,0h.45c8.93-.29,18.55.17,27.41,0v.1c5.29-.11,11.77-.07,15.55-.28,1.56,0,3.69.18,3,.3,4-.08,4.5-.19,10.34,0-4.07.17,1.4.15-4.17.12,5.25.09,6.44.25,12.08,0-1.92.25,4,.31,6.46.24l-3.68-.18c2.8,0,5.26,0,7.75,0l-1.35.33c10.75.4,19.39-.69,27.58,0,2.84-.24-5.84-.17-3.3-.44,4.95,0,10.1.52,11.65.52,6.77.19,6.32-.48,13.41-.36-.91-.11-1.77-.43,3.53-.54,4.95,0,6.08.49,3,.59a6.88,6.88,0,0,1-1.71-.07c-1.6,0-3.7.1-1.74.22l.65-.11c2.45.12,9.26.1,7.66.3,3.74-.11,1.6-.2-1.17-.26,6.35.18,9.92,0,16.45.12-1-.06-2-.2-1-.2,9.58.15,4.22-.22,10.71-.28,3.69.18-1.32.43,5.21.28,4,.13.85.32-.74.41,6-.22,11.13.16,14.53.2l-3.14.09c1.88,0,3.42,0,5,0l-1.79-.24a22.86,22.86,0,0,1,3.37.14c1.89-.15-1.46-.39,2.31-.61,2.46.13,7.48-.12,8.33.19-7.73-.11.85.32-5.69.37,1.26,0,2.8,0,4.65,0,.28,0-.26.07-.77.09,7.39.28,3.4-.36,11.06-.35-.49.09,0,.17.68.23s1.62.16,2.21.16c-1.44-.07-1.78-.17-1.43-.24a9.84,9.84,0,0,1,2.76,0,11.49,11.49,0,0,1,1.52.35c.45.14.85.21,1.2.34.68.26,1.23.41,1.69.59a14.65,14.65,0,0,1,2.64,1.31c-.4-.25-.78-.52-1.19-.75L478,38.94a15.78,15.78,0,0,1,5.62,3.5c.06.15-.52-.34-1-.76s-.94-.69-.49-.31a14.45,14.45,0,0,1,4.17,4.5A24.66,24.66,0,0,1,489,52.52c.26,2.34-.27.29-.07,2.31.06.7.12,1.31.14,1.88s0,1.13,0,1.62c0,1,0,1.79-.07,2.61-.07,1.65-.14,3.33,0,6.46.23-1.8.18-2.12.41,2.28l-.17-10.27.35,6.59c0-3.1-.15-6.54-.11-8.39.19,3.14.13,2.81.33,1.33-.36,4.24.21,8.4,0,13.3l-.59-.15c-.27,7.37.3,13.09.15,22.66l.1-3.08c.24,1.28,0,5.91.13,9-.2-.28-.27,1.65-.39,3,.15-.16,0,7,.38,7.87l-.26,4.27c-.11,7.73.56,8.82.5,16.24-.22-2.24-.36,1.14-.51-3.83a33.46,33.46,0,0,0,.1,4.74c-.13,1.45.26,6.87.08,9.15a24.94,24.94,0,0,1,.27,4.17c0,.31-.1,0-.1,0s.14,4.36.36,1.93c-.62,7.63,0,21.34-.49,28,.05,5.41.1,11.93.15,16.84-.06-.31-.1,0-.08-.94-.19,6.77.56,4.16.36,11.87-.32,3.94-.17-4.09-.29-1.64-.65,1.07.09,9.3-.29,14.49l0-1.25c-.22,4,.24,9.67.2,16.15,0,0-.06-.32-.1,0,.33,4.43.44,12.82.53,19.05-.25-1.94-.13-2.83-.39-1.65,0,2.8.41-.82.49,4.76-.14,1.81-.26,5.84-.54,6.37V254.9c-.36,2.69,0,6.81-.05,9.58l-.16-.35c0,2,0,3.52.07,4.79,0,.62,0,1.17,0,1.7l-.16,1.54a17.22,17.22,0,0,1-3.11,7.69,4.56,4.56,0,0,0,.59-.65,11.23,11.23,0,0,1-2.62,3.35c-.39.3-.77.6-1.26,1l-.89.69a14.81,14.81,0,0,1-1.2.91c-.47.12-.92.27-1.39.37a19.79,19.79,0,0,1-6.67,2.33c-.73.14-1.5.15-2.26.22l-2.36.07-4.51.09c1.58-.14,4-.25,6.56-.35a19.48,19.48,0,0,0,6.76-1.45,22,22,0,0,1-2.72.81l-1.7.27c-.58.07-1.18.08-1.76.12-2.41.08-4.69.1-5.49.21,1.24,0,2.82-.13,4.05-.07-3.8.31-8.8.46-15,.45,1.09-.76-16.08-.19-20.56-.79-10.92.29-21.66-.12-34.37-.07,4.51.59-3.72,0-2.94.63-3,0-4.09,0-4.35,0l-2.1-.08L383.86,292c-1.82,1.12,2.19-1.78,1.89-1.73-5.25,3.81-2.35,1.41-5.9,3.82.84-.34-1.63,1.59-4.66,3.72l4.36-2.86c-7.1,5.63-6.61,4.23-13.78,9.9L368,303c-3.71,2.88-13.93,10.25-17.34,13.37-.71.44-1.7.95-.06-.31l-3.47,2.56a8.31,8.31,0,0,1-1.64,1.05,6.24,6.24,0,0,1-1.79.57,6.82,6.82,0,0,1-7.17-9.87c1.28-2.25,2.62-4.44,3.77-6.26l-.3.81c1-1.82,1.61-3.28,3.07-5.46,0,.15-.3.8.2,0,.52-1,2.59-4.92,4.08-7.26l-1.06,2.12,1.61-2.66c.89-1.52,1.74-3,2.56-4.34l-4.81,0-2.65.06-4.8.16c-3.15.12-6.29.24-10,.28,0-.44-8.57-.58-12.86-.65l.15-.06c-12.73-.06-21.62.36-33.41.53-7.31-.47-24.78-.2-36.53-.46,1.79.08-.3.34-2.39.38-2.75-.09-7.62.31-7.18-.09h1c-2.08-.39-7.75-.29-12.18-.3l-.73.53c-11.58-.77-30.34.28-36.66-.41-2.79.14-6.26.13-9,.27l.15-.29c-7.74-.07-11.61-.1-21.18,0l2-.2c-5.4,0-6.82.82-11.8.83l-1.5-.42c-9.42,0-18.95-.36-28.26,0a5.36,5.36,0,0,1,2-.2c-4.43,0-17.15-.29-15.54.29-.11-.37-9.72,0-14.8.13l.79-.28a102.23,102.23,0,0,1-10.43.56c-1.42,0-1.24-.23.65-.16-4.74-.14-3.69.27-9.43.12l2.14-.18a53.27,53.27,0,0,0-7.17.28,73.85,73.85,0,0,1-10-.32,33.8,33.8,0,0,1-6.18.26c-.37-.11.63-.11,1.17-.16-1,0-1.91-.1-2.78-.16a22.7,22.7,0,0,1-2.41-.42l-1.1-.27c-.35-.09-.68-.23-1-.33s-.66-.22-1-.34l-.91-.41a16.12,16.12,0,0,1-6-4.61c0-.15-.23-.42-.46-.8a19.34,19.34,0,0,0,6,5,24,24,0,0,0,2.62,1.16c0-.14-4.37-2.29-.71-.95a19,19,0,0,1-6.3-3.79,16.93,16.93,0,0,1-4.44-6.73,4.73,4.73,0,0,1-.13-.63l.19.46-.27-.76-.2-.75c-.12-.49-.3-.94-.38-1.41a26.87,26.87,0,0,1-.26-4c.21-.6.12-6,.13-8.6-.29.22-.24-3.19-.47,0a16.34,16.34,0,0,1,0,2.23c0,.39,0,.85,0,1.11l0-.18c0,1.7,0,4,0,6.45A47.74,47.74,0,0,1,31,262c-.18-1.34-.37-2.81-.45-3.64.39-3.57.6-10.44.84-11.4-.16-8-.1-18.75-.63-23.75a14.92,14.92,0,0,1,.23-3.45c.06,1.31.05,2.86.12,3.57-.13-4.52-.05-13.4-.42-14.48.17-5.7.34,3.2.28-4.63l.11,1.06c.59-15.42-.94-25.06-.18-42.15a17.09,17.09,0,0,1-.13,2c.33-19.48-.31-40.15.22-59.37a81.7,81.7,0,0,0-.31-9.39l.3-1.18-.35-5.71c-.25-8.08.74-14,.26-24.23l-.2,1.32c.06-3.67-.17-11.67.16-11,0-.18-.05-.48-.06-.9A8.4,8.4,0,0,1,31,53l.17-.07a19.21,19.21,0,0,1,3.27-8.11c2.2-2.65,2.26-2.21,2.42-2.21s.27,0,.86-.51c.28-.25.73-.54,1.32-1a9.28,9.28,0,0,1,1.06-.7c.42-.22.85-.55,1.41-.8a21.08,21.08,0,0,1,6-2.17c1-.25,1.81-.27,2.31-.37s.67-.13.32-.14c-1.51,0-3.83.28-4,.17a20.59,20.59,0,0,1,3.41-.48c.31-.26,1.14-.51.82-.72a4,4,0,0,0-1.61-.24,10,10,0,0,0-1.89.08,19.14,19.14,0,0,0-2.81.5,22.86,22.86,0,0,0-5.5,2.93l-1.75,1a21.76,21.76,0,0,1,4.46-2.81,10.15,10.15,0,0,0-1.87.89,9.74,9.74,0,0,0-1.48,1c-.44.36-.86.68-1.24,1l-1.09,1.13a9.62,9.62,0,0,0-2,1.78,21.52,21.52,0,0,0-2.72,5.5c-.2.32-.08-.37,0-.63S30.78,48,30,49.9c-.62,2.82,1.11-2.51,0,2.07-.72,2.84-.82,2.07-.73,5.48-.1.45-.23-.2-.21-1.6.07,3,0,7.88.27,9.43-.26,3,.07,10-.37,9.73.1.94.34,5.23.36,8-.52-5,0,10.21-.59,8.89.47,3.69.21,13.32.47,19.86a12.93,12.93,0,0,1-.09-1.66c0,3.67-.18,4.74-.27,7.1.39.48.48,6.2.72,9.29-.38,4.5-.46-2.74-.82-1.32.32-.23.32,7.83.58,6.29a27.94,27.94,0,0,1-.44,4.75c.49.6.08,3.21.39,6.07-.25,5-.46,1.28-.31,6.76C28.84,151.6,28.66,146.73,28.66,146.73Zm2.69,130.36h0a11.71,11.71,0,0,1-.6-1.47,11.52,11.52,0,0,1-.4-1.14,9.34,9.34,0,0,0,.36,1A15,15,0,0,0,31.35,277.09Zm7.2,8.6a21.89,21.89,0,0,1-3.67-3.26c-.2-.36.16-.09.93.73A15.18,15.18,0,0,0,38.55,285.69Zm-7.09-20.87a12.37,12.37,0,0,1-.07,2.55l0-3,0-.2A3.54,3.54,0,0,1,31.46,264.82Z"/><path class="cls-2" d="M31.09,261.71l0-.72L31,262l.09.61Z"/><path class="cls-2" d="M268,37h.23a4.59,4.59,0,0,1-.48,0Z"/><polygon class="cls-2" points="189.48 289.85 189.46 289.78 188.5 289.84 189.48 289.85"/><path class="cls-2" d="M207.71,36a4.72,4.72,0,0,0-.79-.07A7.75,7.75,0,0,0,207.71,36Z"/><path class="cls-2" d="M181.66,36l-3.68-.1Z"/><path class="cls-2" d="M161.63,35.82a1.07,1.07,0,0,0-.39.12h0Z"/><path class="cls-2" d="M480.23,38c.25.13.48.29.7.41C482.6,39.35,481.48,38.68,480.23,38Z"/><path class="cls-2" d="M385.33,36.14l3.05-.13A10.51,10.51,0,0,0,385.33,36.14Z"/><path class="cls-2" d="M491.68,140.84h0v0Z"/><path class="cls-2" d="M392.79,36c-1.69-.06-3.1-.05-4.41,0C389.76,36,391.39,36.06,392.79,36Z"/><path class="cls-2" d="M74.81,35.69h-1s0,0-.11,0Z"/><path class="cls-2" d="M73.74,35.72l-1.08,0A8.65,8.65,0,0,0,73.74,35.72Z"/><path class="cls-2" d="M70.41,35.83l2.25-.07A19,19,0,0,0,70.41,35.83Z"/><path class="cls-2" d="M101.33,35.82l.3-.1C101.47,35.74,101.36,35.77,101.33,35.82Z"/><path class="cls-2" d="M109.39,35.79c-1.92,0-4.82-.22-7.51-.15l-.25.08C102.9,35.57,107.56,36,109.39,35.79Z"/><path class="cls-2" d="M143,37.05,136.27,37c1.18.11,2.73.25-.34.28C144.44,37.57,134.18,37,143,37.05Z"/><path class="cls-2" d="M164,37.21c-3.63,0,0,.16-.15.22C166.11,37.33,166.67,37.3,164,37.21Z"/><path class="cls-2" d="M315.26,37.21l-.36.25C317.69,37.43,314.92,37.37,315.26,37.21Z"/><polygon class="cls-2" points="344.18 35.89 341.46 35.73 340.17 35.96 344.18 35.89"/><polygon class="cls-2" points="361.27 37.71 360.05 37.74 364.71 37.65 361.27 37.71"/><path class="cls-2" d="M489.21,170.28l.31-.85C489.47,167.54,489.11,167.15,489.21,170.28Z"/><path class="cls-2" d="M486.46,279c-.17.23-.43.54-.74.89s-.61.79-1,1.18-.75.84-1.15,1.21-.77.75-1.08,1.09A18.38,18.38,0,0,0,486.46,279Z"/><polygon class="cls-2" points="218.57 287.32 220.78 287.22 216.62 287.31 218.57 287.32"/></svg>